Coordinates
version=1
nRows=29
nColumns=24
inDegrees=yes

Units are S.I. units (second, meters, Newtons, ...)
Angles are in degrees.

endheader
time	pelvis_tilt	pelvis_list	pelvis_rotation	pelvis_tx	pelvis_ty	pelvis_tz	hip_flexion_r	hip_adduction_r	hip_rotation_r	knee_angle_r	ankle_angle_r	subtalar_angle_r	mtp_angle_r	hip_flexion_l	hip_adduction_l	hip_rotation_l	knee_angle_l	ankle_angle_l	subtalar_angle_l	mtp_angle_l	lumbar_extension	lumbar_bending	lumbar_rotation
      5.20000000	     -8.01788480	     -5.51408277	      5.87070601	     -0.71171293	     -0.00119025	     -0.27549793	     11.24368766	      9.77177162	      3.61078917	    -12.60474172	      1.83323051	     -3.49395262	     12.12013820	     25.55524031	     -7.31834082	      1.82104008	    -61.62400849	    -12.23594573	     -6.28179544	     20.56687504	      7.30370442	      4.30116224	      0.77271780
      5.20500000	     -8.02908895	     -5.27422116	      5.68396751	     -0.70695054	     -0.00088789	     -0.27503069	     10.76394902	      9.59901098	      3.80617896	    -12.35683791	      2.02423408	     -3.40441298	     12.15252037	     26.08949395	     -7.02785221	      1.54355281	    -61.13952743	    -11.62729218	     -6.39082174	     20.42399153	      7.20556588	      4.08867961	      1.11872061
      5.21000000	     -8.06273907	     -5.04983035	      5.55264262	     -0.70220632	     -0.00068435	     -0.27461369	     10.31369638	      9.42803540	      3.93766674	    -12.09999209	      2.21518825	     -3.36421279	     12.21344344	     26.65515432	     -6.72206876	      1.34453726	    -60.60516522	    -11.08449619	     -6.47734660	     20.39023444	      7.13722667	      3.87366145	      1.39100115
      5.21500000	     -8.03531795	     -4.83654583	      5.31382267	     -0.69750349	     -0.00043762	     -0.27415383	      9.81195632	      9.28287210	      4.14581491	    -11.86995956	      2.37654573	     -3.21697673	     12.34883203	     27.10875549	     -6.48674904	      1.03360167	    -60.00247449	    -10.49746566	     -6.55668205	     20.22431822	      6.98897765	      3.70867371	      1.79314807
      5.22000000	     -8.02846964	     -4.62583391	      5.13433488	     -0.69282190	     -0.00028467	     -0.27376874	      9.33777925	      9.12531466	      4.30594330	    -11.63669768	      2.54530723	     -3.13873043	     12.50367685	     27.58849866	     -6.21857966	      0.80099985	    -59.35375002	     -9.94406664	     -6.58715141	     20.09271659	      6.86744304	      3.53219627	      2.11517866
      5.22500000	     -8.01450246	     -4.43854140	      4.94776992	     -0.68815351	     -0.00018326	     -0.27339119	      8.86481981	      8.99128491	      4.46492103	    -11.41041816	      2.70055481	     -3.06663688	     12.68232994	     28.05005530	     -5.98140200	      0.57531388	    -58.65577799	     -9.41426977	     -6.60223926	     19.96993363	      6.74223607	      3.38145518	      2.44914774
      5.23000000	     -8.00341966	     -4.25740224	      4.75712572	     -0.68351254	     -0.00013238	     -0.27303924	      8.40714025	      8.86065624	      4.63185655	    -11.20102586	      2.85077092	     -3.01241660	     12.86551912	     28.49800425	     -5.74895523	      0.36504284	    -57.90211753	     -8.90453117	     -6.59213746	     19.86629233	      6.61642349	      3.23964945	      2.78018835
      5.23500000	     -8.02236022	     -4.08568076	      4.60552723	     -0.67889677	     -0.00017851	     -0.27271817	      7.99558441	      8.73354974	      4.76572888	    -11.00949689	      3.02796872	     -3.01006998	     12.99454200	     28.97755737	     -5.50319443	      0.21572433	    -57.10025233	     -8.45201667	     -6.56570456	     19.83382546	      6.52956212	      3.08945725	      3.07091807
      5.24000000	     -7.99814369	     -3.91354170	      4.36377541	     -0.67430688	     -0.00019686	     -0.27239237	      7.55185546	      8.61404716	      4.98665326	    -10.84993247	      3.18831624	     -2.96641725	     13.16095932	     29.36435430	     -5.30707999	     -0.01937848	    -56.23031351	     -7.97149347	     -6.51165846	     19.75141620	      6.38436459	      2.98642102	      3.44993502
      5.24500000	     -7.94714995	     -3.76532494	      4.11948029	     -0.66971063	     -0.00022310	     -0.27203935	      7.07600782	      8.52185695	      5.23682139	    -10.67854562	      3.30602679	     -2.94697697	     13.33622510	     29.70825436	     -5.14696304	     -0.24172655	    -55.31493770	     -7.50649282	     -6.44108094	     19.57824541	      6.21635173	      2.89111435	      3.84647209
      5.25000000	     -7.96700477	     -3.61153181	      3.94435301	     -0.66518394	     -0.00038190	     -0.27177166	      6.71215305	      8.41139409	      5.40744262	    -10.56449434	      3.46353714	     -2.99277736	     13.43687963	     30.12790731	     -4.92715097	     -0.35605057	    -54.34557509	     -7.09635700	     -6.36145710	     19.50396077	      6.11689402	      2.76987788	      4.14479494
      5.25500000	     -7.95847228	     -3.46736857	      3.70481763	     -0.66064583	     -0.00052252	     -0.27149802	      6.32015741	      8.31510424	      5.65366935	    -10.46170809	      3.61539983	     -3.01709751	     13.53073326	     30.47823449	     -4.76180305	     -0.53468020	    -53.31334852	     -6.70087366	     -6.25856014	     19.39701494	      5.99607003	      2.68968905	      4.52487744
      5.26000000	     -7.88853364	     -3.33756899	      3.41390305	     -0.65611441	     -0.00062185	     -0.27114456	      5.85309152	      8.24594068	      6.00015519	    -10.34308630	      3.71510543	     -3.08633334	     13.60242042	     30.73350703	     -4.65407771	     -0.75709880	    -52.23823332	     -6.28685708	     -6.13419975	     19.11318526	      5.79752271	      2.62438597	      4.98274868
      5.26500000	     -7.88127688	     -3.20264447	      3.17617167	     -0.65160399	     -0.00081835	     -0.27090431	      5.47255128	      8.15616309	      6.28532447	    -10.25687558	      3.84456293	     -3.18476410	     13.62792930	     31.04334684	     -4.50392105	     -0.91232255	    -51.10564545	     -5.90937864	     -5.98616175	     18.86629739	      5.67084912	      2.54902217	      5.34892795
      5.27000000	     -7.89606086	     -3.07623942	      2.95397376	     -0.64708657	     -0.00107805	     -0.27068810	      5.12271022	      8.07087119	      6.54668257	    -10.18337981	      4.00297730	     -3.28188397	     13.62325678	     31.35684455	     -4.36106287	     -1.05233782	    -49.91704330	     -5.57537033	     -5.85034395	     18.66492851	      5.57351363	      2.47488123	      5.67449533
      5.27500000	     -7.90430536	     -2.95526143	      2.71791025	     -0.64258462	     -0.00133700	     -0.27043636	      4.77386834	      7.99396489	      6.83390118	    -10.12648003	      4.14711572	     -3.37981942	     13.57547467	     31.63164703	     -4.23687677	     -1.18557697	    -48.66588356	     -5.26931489	     -5.71075367	     18.43164390	      5.46620289	      2.39683894	      6.02659633
      5.28000000	     -7.90838566	     -2.84338391	      2.48237542	     -0.63809331	     -0.00160467	     -0.27022845	      4.42269212	      7.92239041	      7.13358700	    -10.07368105	      4.28528595	     -3.49043214	     13.47601507	     31.87539710	     -4.12327266	     -1.30762409	    -47.35999347	     -4.98544160	     -5.56680982	     18.14024243	      5.35123039	      2.33553668	      6.38415055
      5.28500000	     -7.88977316	     -2.74592555	      2.24540244	     -0.63366165	     -0.00186782	     -0.27006356	      4.05758270	      7.86462688	      7.44615594	    -10.03699999	      4.41786181	     -3.62766709	     13.27124637	     32.07448283	     -4.02339211	     -1.40489767	    -46.01350442	     -4.69877288	     -5.40607009	     17.70304333	      5.19672183	      2.30373993	      6.77447345
      5.29000000	     -7.92175712	     -2.64764841	      2.03726194	     -0.62915226	     -0.00220837	     -0.26991405	      3.74106316	      7.79704804	      7.70530496	     -9.99541496	      4.58743803	     -3.71309234	     13.08909305	     32.29719453	     -3.91572956	     -1.48456685	    -44.60472465	     -4.45270797	     -5.25613791	     17.31515362	      5.11283024	      2.24788261	      7.08148656
      5.29500000	     -7.91935307	     -2.56226681	      1.87151405	     -0.62460962	     -0.00254371	     -0.26981209	      3.37652924	      7.74234867	      7.91478118	     -9.93850866	      4.77857054	     -3.83022504	     12.70372548	     32.46174492	     -3.80836029	     -1.53721619	    -43.16244091	     -4.13312772	     -5.03695685	     16.68978651	      4.99653782	      2.20097448	      7.34121177
      5.30000000	     -8.00229674	     -2.48577033	      1.66448827	     -0.62010313	     -0.00297574	     -0.26971499	      3.12510918	      7.68321849	      8.13588148	     -9.90983562	      4.96918354	     -3.81813921	     12.61862170	     32.68533204	     -3.72386912	     -1.58507204	    -41.64555157	     -4.01614149	     -4.96740945	     16.39430948	      4.96853125	      2.17078221	      7.63865547
      5.30500000	     -8.03423476	     -2.40035093	      1.47711017	     -0.61555406	     -0.00336442	     -0.26965486	      2.80441990	      7.61200460	      8.32939677	     -9.85735381	      5.14313196	     -3.84419515	     12.47067633	     32.81652005	     -3.63025286	     -1.63587175	    -40.07274007	     -3.88211982	     -4.88285827	     15.99202378	      4.88678409	      2.13145340	      7.91973277
      5.31000000	     -8.06812659	     -2.32531894	      1.30767835	     -0.61097643	     -0.00377493	     -0.26961744	      2.48260014	      7.54692831	      8.48599257	     -9.79978324	      5.32371736	     -3.84500417	     12.30058834	     32.92569539	     -3.54097622	     -1.66158813	    -38.46507655	     -3.74865075	     -4.78102339	     15.50214748	      4.81065998	      2.09698015	      8.17784620
      5.31500000	     -8.15216693	     -2.26227519	      1.17126578	     -0.60632291	     -0.00425983	     -0.26960886	      2.20115666	      7.48620903	      8.59508590	     -9.71636431	      5.49138428	     -3.82057367	     12.20475342	     33.06956920	     -3.45539060	     -1.66738202	    -36.82238310	     -3.66523585	     -4.66666024	     15.10557644	      4.80782721	      2.06080235	      8.35919679
      5.32000000	     -8.24168320	     -2.20894250	      1.04139668	     -0.60173896	     -0.00478467	     -0.26961726	      1.95566676	      7.43705550	      8.65994907	     -9.67959599	      5.65174649	     -3.81010713	     12.15762756	     33.19876035	     -3.37082956	     -1.60917931	    -35.14420924	     -3.60540224	     -4.54412011	     14.76924741	      4.78969488	      2.03456181	      8.56489875
      5.32500000	     -8.20820639	     -2.15536163	      0.87764074	     -0.59707519	     -0.00514532	     -0.26967305	      1.54544513	      7.37364325	      8.71801735	     -9.59350637	      5.84536325	     -3.64432875	     12.02428994	     33.15543937	     -3.30682110	     -1.61337632	    -33.44687490	     -3.47283033	     -4.44241078	     14.06952148	      4.64662348	      2.03147276	      8.84038552
      5.33000000	     -8.32358589	     -2.10649044	      0.76445102	     -0.59229552	     -0.00572566	     -0.26972978	      1.28909401	      7.31436328	      8.75152238	     -9.50128783	      6.02121975	     -3.55627175	     11.99592819	     33.26450166	     -3.23172995	     -1.58284733	    -31.73316770	     -3.38850107	     -4.28766086	     13.67094907	      4.69510710	      2.00279927	      8.98458592
      5.33500000	     -8.46759072	     -2.14345052	      0.68323924	     -0.58762034	     -0.00639149	     -0.26985598	      1.08456763	      7.34700848	      8.72461848	     -9.42355779	      6.10324002	     -3.53453026	     11.99933116	     33.42337068	     -3.21747184	     -1.41161172	    -30.04011563	     -3.31902106	     -4.07492516	     13.50951344	      4.75516106	      2.07727988	      9.15765276
      5.34000000	     -8.47393846	     -2.01778536	      0.51333189	     -0.58276063	     -0.00679990	     -0.26989858	      0.71292963	      7.19316571	      8.76725872	     -9.35191439	      6.32811336	     -3.28412959	     12.05267601	     33.32864219	     -3.10085102	     -1.44999441	    -28.25060205	     -3.25935271	     -3.94668030	     13.01660907	      4.68455909	      1.97234179	      9.36388018
